# xmcd CD database file
#
# Track frame offsets:
#	150
#	30507
#	56477
#	79927
#	111380
#	130560
#	157032
#	188960
#
# Disc length: 2868 seconds
#
# Revision: 0
# Processed by: cddbd v1.5.1PL2 Copyright (c) Steve Scherf et al.
# Submitted via: CDex 1.51
#
DISCID=640b3208
DTITLE=YASUAKI SHIMIZU and THE SAXOPHONETTES - Time and Again
DYEAR=1993
DGENRE=New Age
TTITLE0=As You Recall... - Barefoot, Broke and Beautiful
TTITLE1=Battleship Grey-Blues
TTITLE2=Arturo Remembers-Just Coincidence?
TTITLE3=Stir-Fried Ice - Seven Screen Fix "Blade Runner-Love Theme-"
TTITLE4=Moths and Cortisone
TTITLE5=Nubian Nights
TTITLE6=The Crab Sub-Continent
TTITLE7=History of Shoes
EXTD=YEAR: 1993
EXTT0=
EXTT1=
EXTT2=
EXTT3=
EXTT4=
EXTT5=
EXTT6=
EXTT7=
PLAYORDER=
